# xmcd
#
# Track frame offsets:
#	150
#	22682
#	41283
#	63243
#	83302
#	104870
#	123000
#	141092
#	163564
#	190817
#
# Disc length: 2812 seconds
#
# Revision: 0
# Processed by: cddbd v1.4PL0 Copyright (c) Steve Scherf et al.
# Submitted via: audiograbber 1.82.01
#
DISCID=6f0afa0a
DTITLE=Pascal Machalani - Chou Amaltillak Ana?
DYEAR=1900
DGENRE=
TTITLE0=Chou Amaltellak Ana?
TTITLE1=Leyla Baad Leyla
TTITLE2=Moch Arfah Ansak
TTITLE3=Jannanto
TTITLE4=Yeslamli
TTITLE5=Ana Habeyto
TTITLE6=Gayi Walla Nsit
TTITLE7=Elli Mou Aal Bal
TTITLE8=Betkhaf Aleik Addi
TTITLE9=La Farka Maak
EXTD=
EXTT0=
EXTT1=
EXTT2=
EXTT3=
EXTT4=
EXTT5=
EXTT6=
EXTT7=
EXTT8=
EXTT9=
PLAYORDER=
